<svg xmlns="http://www.w3.org/2000/svg" width="15.077" height="19.055" viewBox="0 0 15.077 19.055"><defs><style>.a{fill:#918a55;}</style></defs><path class="a" d="M68.2,15.164a2.961,2.961,0,0,1-.9-1.225,14.176,14.176,0,0,1-.938-5.6c0-.007,0-.014,0-.021a5.406,5.406,0,0,0-3.183-4.9V2.123A2.123,2.123,0,0,0,61.061,0h-.176a2.123,2.123,0,0,0-2.119,2.123v1.29a5.407,5.407,0,0,0-3.183,4.925,14.176,14.176,0,0,1-.938,5.6,2.96,2.96,0,0,1-.9,1.225.543.543,0,0,0-.3.617.568.568,0,0,0,.56.436H58.1a2.874,2.874,0,0,0,5.748,0h4.092a.568.568,0,0,0,.56-.436A.543.543,0,0,0,68.2,15.164ZM59.882,2.123a1,1,0,0,1,1-1h.176a1,1,0,0,1,1,1V3.05a5.407,5.407,0,0,0-2.181,0V2.123Zm1.09,15.814a1.762,1.762,0,0,1-1.757-1.719H62.73A1.762,1.762,0,0,1,60.973,17.936ZM63.221,15.1H55.279a5.852,5.852,0,0,0,.293-.514A14.134,14.134,0,0,0,56.7,8.337a4.273,4.273,0,1,1,8.546,0c0,.007,0,.014,0,.021a14.105,14.105,0,0,0,1.128,6.226,5.857,5.857,0,0,0,.293.514Z" transform="translate(-53.434)"/></svg>