<svg xmlns="http://www.w3.org/2000/svg" width="18.026" height="18.026" viewBox="0 0 18.026 18.026"><defs><style>.a{fill:#918a55;}</style></defs><path class="a" d="M137.918,133.609a4.309,4.309,0,1,0,4.309,4.309A4.314,4.314,0,0,0,137.918,133.609Zm0,7.541a3.232,3.232,0,1,1,3.232-3.232A3.236,3.236,0,0,1,137.918,141.15Zm0,0" transform="translate(-128.905 -128.905)"/><path class="a" d="M17.6,6.961l-1.385-.3a7.54,7.54,0,0,0-.446-1.075l.767-1.193a.539.539,0,0,0-.072-.672L14.307,1.561a.539.539,0,0,0-.672-.072l-1.193.767a7.54,7.54,0,0,0-1.075-.446l-.3-1.385A.539.539,0,0,0,10.539,0H7.487a.539.539,0,0,0-.526.424l-.3,1.385a7.54,7.54,0,0,0-1.075.446L4.391,1.488a.539.539,0,0,0-.672.072L1.561,3.719a.539.539,0,0,0-.072.672l.767,1.193A7.54,7.54,0,0,0,1.81,6.659l-1.385.3A.539.539,0,0,0,0,7.487v3.052a.539.539,0,0,0,.424.526l1.385.3a7.54,7.54,0,0,0,.446,1.075l-.767,1.193a.539.539,0,0,0,.072.672l2.158,2.158a.539.539,0,0,0,.672.072l1.193-.767a7.54,7.54,0,0,0,1.075.446l.3,1.385a.539.539,0,0,0,.526.424h3.052a.539.539,0,0,0,.526-.424l.3-1.385a7.54,7.54,0,0,0,1.075-.446l1.193.767a.539.539,0,0,0,.672-.072l2.158-2.158a.539.539,0,0,0,.072-.672l-.767-1.193a7.54,7.54,0,0,0,.446-1.075l1.385-.3a.539.539,0,0,0,.424-.526V7.487A.539.539,0,0,0,17.6,6.961Zm-.653,3.144-1.27.276a.539.539,0,0,0-.4.382,6.463,6.463,0,0,1-.6,1.439.538.538,0,0,0,.016.556l.7,1.094L13.853,15.4l-1.094-.7a.538.538,0,0,0-.556-.016,6.467,6.467,0,0,1-1.439.6.539.539,0,0,0-.382.4l-.276,1.27H7.921l-.276-1.27a.539.539,0,0,0-.382-.4,6.463,6.463,0,0,1-1.439-.6.539.539,0,0,0-.556.016l-1.094.7L2.63,13.852l.7-1.094a.538.538,0,0,0,.016-.556,6.47,6.47,0,0,1-.6-1.439.539.539,0,0,0-.4-.382l-1.271-.276V7.921l1.27-.276a.539.539,0,0,0,.4-.382,6.463,6.463,0,0,1,.6-1.439.538.538,0,0,0-.016-.556l-.7-1.094L4.174,2.629l1.094.7a.538.538,0,0,0,.556.016,6.467,6.467,0,0,1,1.439-.6.539.539,0,0,0,.382-.4l.276-1.27h2.184l.276,1.27a.539.539,0,0,0,.382.4,6.463,6.463,0,0,1,1.439.6.539.539,0,0,0,.556-.016l1.094-.7L15.4,4.174l-.7,1.094a.538.538,0,0,0-.016.556,6.463,6.463,0,0,1,.6,1.439.539.539,0,0,0,.4.382l1.271.276Zm0,0"/></svg>