<svg xmlns="http://www.w3.org/2000/svg" width="19.207" height="19.205" viewBox="0 0 19.207 19.205"><defs><style>.a{fill:#918a55;}</style></defs><path class="a" d="M18.644.966H14.75a.562.562,0,0,0-.562.562v.966H11.419V.581a.562.562,0,0,0-.562-.562H5.226a.562.562,0,0,0-.562.562V3.2H.562A.562.562,0,0,0,0,3.765v14.9a.562.562,0,0,0,.562.562H18.644a.562.562,0,0,0,.562-.562V1.529a.562.562,0,0,0-.562-.562ZM15.313,4.486h2.769V15.73H15.313Zm0-2.395h2.769v1.27H15.313ZM14.188,3.619V5.572H11.419V3.619Zm-8.4,1.36h4.506v9.3H5.788Zm0-3.836h4.506V3.855H5.788ZM4.664,4.328V5.882H1.125V4.328ZM1.125,7.007H4.664V18.1H1.125Zm4.664,8.4h4.506v2.7H5.788ZM11.419,6.7h2.769V18.1H11.419Zm3.894,11.4V16.855h2.769V18.1Z" transform="translate(0 -0.019)"/></svg>