<svg xmlns="http://www.w3.org/2000/svg" width="19.345" height="19.345" viewBox="0 0 19.345 19.345"><defs><style>.a{fill:#918a55;}</style></defs><path class="a" d="M19.345,9.258a9.677,9.677,0,1,0-18,5.339L.036,19.319l4.723-1.306a9.642,9.642,0,0,0,4.5,1.332C16.74,19.345,19.345,13.812,19.345,9.258ZM4.993,16.407l-2.827.782.782-2.827-.178-.279a8.19,8.19,0,1,1,2.5,2.5Z"/><path class="a" d="M180.5,271h1.485v1.485H180.5Zm0,0" transform="translate(-171.565 -257.585)"/><path class="a" d="M139.955,92.97a1.47,1.47,0,0,1-.483,1.1l-1.744,1.6v1.812h1.485V96.317l1.262-1.155A2.97,2.97,0,1,0,135.5,92.97h1.485a1.485,1.485,0,1,1,2.97,0Zm0,0" transform="translate(-128.793 -85.545)"/></svg>