<svg xmlns="http://www.w3.org/2000/svg" width="22.12" height="19.394" viewBox="0 0 22.12 19.394"><defs><style>.a{fill:#918a55;}</style></defs><g transform="translate(0 -31.55)"><path class="a" d="M126.748,38.452a5.832,5.832,0,0,0-4.1,9.893,4.771,4.771,0,0,1,1.377,3.33v3.064a2.808,2.808,0,1,0,5.616,0V51.675A4.7,4.7,0,0,1,131,48.368a5.832,5.832,0,0,0-4.248-9.916ZM125.32,52.363h3.024v1.32H125.32Zm1.512,3.888a1.514,1.514,0,0,1-1.493-1.273h2.986A1.514,1.514,0,0,1,126.832,56.251Zm3.238-8.791a5.986,5.986,0,0,0-1.7,3.606h-3.086a6.09,6.09,0,0,0-1.712-3.624,4.51,4.51,0,0,1-1.281-3.2,4.561,4.561,0,0,1,4.47-4.5h.066a4.536,4.536,0,0,1,3.238,7.713Z" transform="translate(-115.772 -6.604)"/><path class="a" d="M0,157.4H3.284v1.3H0Z" transform="translate(0 -120.41)"/><path class="a" d="M0,0H3.284V1.3H0Z" transform="matrix(0.866, -0.5, 0.5, 0.866, 1.135, 42.61)"/><path class="a" d="M0,0H1.3V3.284H0Z" transform="matrix(0.5, -0.866, 0.866, 0.5, 17.447, 42.17)"/><path class="a" d="M436,159.506h3.284v1.3H436Z" transform="translate(-417.16 -122.428)"/><path class="a" d="M0,0H3.284V1.3H0Z" transform="matrix(0.866, -0.5, 0.5, 0.866, 17.492, 33.271)"/><path class="a" d="M0,0H1.3V3.284H0Z" transform="matrix(0.5, -0.866, 0.866, 0.5, 1.18, 32.673)"/></g></svg>