<svg xmlns="http://www.w3.org/2000/svg" width="19.318" height="19.318" viewBox="0 0 19.318 19.318"><defs><style>.a{opacity:0.8;}.b{fill:#fff;}</style></defs><g class="a"><path class="b" d="M9.659,0a9.659,9.659,0,1,0,9.659,9.659A9.659,9.659,0,0,0,9.659,0Zm0,18.11A8.451,8.451,0,1,1,18.11,9.659,8.451,8.451,0,0,1,9.659,18.11Z"/><circle class="b" cx="1.5" cy="1.5" r="1.5" transform="translate(10.824 5.658)"/><path class="b" d="M1.4,3H0a5.435,5.435,0,0,1,9.712,0h-1.4A4.227,4.227,0,0,0,1.4,3Z" transform="translate(4.803 10.303)"/><circle class="b" cx="1.5" cy="1.5" r="1.5" transform="translate(5.824 5.658)"/></g></svg>