<svg xmlns="http://www.w3.org/2000/svg" width="17.207" height="19.977" viewBox="0 0 17.207 19.977"><defs><style>.a{fill:#918a55;}</style></defs><g transform="translate(-35.501)"><g transform="translate(35.501 0.778)"><g transform="translate(0)"><path class="a" d="M46.437,19.932H44.1V21.39h1.6v2.746a4.375,4.375,0,0,1-8.749,0V21.39h1.555V19.932H36.23a.729.729,0,0,0-.729.729v3.475a5.833,5.833,0,1,0,11.665,0V20.661A.729.729,0,0,0,46.437,19.932Z" transform="translate(-35.501 -19.932)"/></g></g><g transform="translate(40.532 10.11)"><g transform="translate(0)"><path class="a" d="M173.183,260.426v3.451a3.645,3.645,0,1,1-7.291,0v-4.763h-1.458v4.763a5.1,5.1,0,0,0,10.207,0v-3.451Z" transform="translate(-164.434 -259.114)"/></g></g><g transform="translate(47.312 6.708)"><path class="a" d="M340.914,171.912a2.7,2.7,0,1,0,2.7,2.7A2.7,2.7,0,0,0,340.914,171.912Zm0,3.937a1.239,1.239,0,1,1,1.239-1.239A1.241,1.241,0,0,1,340.914,175.849Z" transform="translate(-338.216 -171.912)"/></g><g transform="translate(37.761)"><g transform="translate(0)"><path class="a" d="M94.157,0a.729.729,0,0,0-.729.729V2.284a.729.729,0,1,0,1.458,0V.729A.729.729,0,0,0,94.157,0Z" transform="translate(-93.428)"/></g></g><g transform="translate(43.399)"><g transform="translate(0)"><path class="a" d="M238.663,0a.729.729,0,0,0-.729.729V2.284a.729.729,0,1,0,1.458,0V.729A.729.729,0,0,0,238.663,0Z" transform="translate(-237.934)"/></g></g></g></svg>