<svg xmlns="http://www.w3.org/2000/svg" width="19.425" height="16.107" viewBox="0 0 19.425 16.107"><defs><style>.a{fill:#918a55;}</style></defs><g transform="translate(0 -43.729)"><g transform="translate(0 50.784)"><path class="a" d="M16.58,231.14h-1.9a2.838,2.838,0,0,0-.748.1,2.848,2.848,0,0,0-2.537-1.56H8.032a2.848,2.848,0,0,0-2.537,1.56,2.838,2.838,0,0,0-.748-.1h-1.9A2.849,2.849,0,0,0,0,233.985v3.04a1.709,1.709,0,0,0,1.707,1.707h16.01a1.709,1.709,0,0,0,1.707-1.707v-3.04A2.849,2.849,0,0,0,16.58,231.14ZM5.187,232.526v5.068H1.707a.57.57,0,0,1-.569-.569v-3.04a1.709,1.709,0,0,1,1.707-1.707h1.9a1.7,1.7,0,0,1,.447.06C5.189,232.4,5.187,232.462,5.187,232.526Zm7.914,5.068H6.325v-5.068a1.709,1.709,0,0,1,1.707-1.707h3.361a1.709,1.709,0,0,1,1.707,1.707Zm5.187-.569a.57.57,0,0,1-.569.569H14.238v-5.068c0-.063,0-.126-.007-.188a1.7,1.7,0,0,1,.447-.06h1.9a1.709,1.709,0,0,1,1.707,1.707Z" transform="translate(0 -229.68)"/></g><g transform="translate(1.268 46.869)"><path class="a" d="M35.943,126.5a2.529,2.529,0,1,0,2.529,2.529A2.531,2.531,0,0,0,35.943,126.5Zm0,3.919a1.39,1.39,0,1,1,1.39-1.39A1.392,1.392,0,0,1,35.942,130.423Z" transform="translate(-33.414 -126.504)"/></g><g transform="translate(6.334 43.729)"><path class="a" d="M170.34,43.729a3.378,3.378,0,1,0,3.378,3.378A3.382,3.382,0,0,0,170.34,43.729Zm0,5.618a2.24,2.24,0,1,1,2.24-2.24A2.242,2.242,0,0,1,170.34,49.347Z" transform="translate(-166.962 -43.729)"/></g><g transform="translate(13.1 46.869)"><path class="a" d="M347.823,126.5a2.529,2.529,0,1,0,2.529,2.529A2.531,2.531,0,0,0,347.823,126.5Zm0,3.919a1.39,1.39,0,1,1,1.39-1.39A1.392,1.392,0,0,1,347.823,130.423Z" transform="translate(-345.294 -126.504)"/></g></g></svg>